<!--?xml version="1.0" standalone="no"?-->

<svg version="1.0" xmlns="http://www.w3.org/2000/svg" width="300.000000pt" height="300.000000pt" viewBox="0 0 300.000000 300.000000" preserveAspectRatio="xMidYMid meet">
<g transform="translate(0.000000,300.000000) scale(0.100000,-0.100000)" fill="#090909" stroke="none">
<path class="node" id="node1" d="M1324 2360 c-166 -18 -351 -81 -467 -158 -147 -96 -162 -183 -44
-243 49 -26 117 -28 151 -6 35 24 33 37 -6 31 -118 -17 -42 99 112 172 84 40
261 91 279 80 4 -3 -3 -78 -16 -168 -21 -148 -23 -199 -23 -563 0 -312 -3
-415 -14 -467 -38 -177 -120 -262 -251 -262 -184 -1 -364 211 -331 389 4 20
23 53 42 74 l34 39 -34 6 c-74 14 -118 -43 -136 -176 -38 -269 163 -472 465
-470 115 0 195 23 258 73 74 59 98 59 206 -5 88 -51 153 -69 230 -64 181 14
337 105 459 270 75 102 114 208 135 368 43 336 -48 631 -258 835 -76 74 -193
150 -285 184 -144 53 -353 79 -506 61z m417 -156 c148 -48 249 -127 344 -269
91 -136 125 -257 125 -443 0 -213 -43 -364 -141 -498 -149 -204 -442 -273
-520 -122 -22 42 -23 49 -21 348 3 341 6 424 29 690 8 102 13 215 10 252 -3
56 -2 68 12 71 26 7 80 -3 162 -29z"></path>
</g>
<g transform="translate(0.000000,300.000000) scale(0.100000,-0.100000)" fill="#A2A2A2" stroke="none">


</g>
</svg>